<mxfile host="Electron" agent="Mozilla/5.0 (Windows NT 10.0; Win64; x64) AppleWebKit/537.36 (KHTML, like Gecko) draw.io/28.0.6 Chrome/138.0.7204.100 Electron/37.2.3 Safari/537.36" version="28.0.6">
  <diagram name="Page-1" id="YQTs-YEjrXhSoh_PITMP">
    <mxGraphModel dx="1028" dy="595" grid="1" gridSize="10" guides="1" tooltips="1" connect="1" arrows="1" fold="1" page="1" pageScale="1" pageWidth="1169" pageHeight="827" math="0" shadow="0">
      <root>
        <mxCell id="0" />
        <mxCell id="1" parent="0" />
        <mxCell id="7GvM1YG2zj2Vh1NtfJTj-1" value="&lt;h1 style=&quot;margin-top: 0px;&quot;&gt;&lt;span style=&quot;background-color: transparent; color: light-dark(rgb(0, 0, 0), rgb(255, 255, 255));&quot;&gt;Data Mart&lt;/span&gt;&lt;/h1&gt;" style="text;html=1;whiteSpace=wrap;overflow=hidden;rounded=0;" vertex="1" parent="1">
          <mxGeometry x="10" y="10" width="290" height="40" as="geometry" />
        </mxCell>
        <mxCell id="7GvM1YG2zj2Vh1NtfJTj-2" value="&lt;h1 style=&quot;text-align: left; margin-top: 0px;&quot;&gt;&lt;span style=&quot;background-color: transparent; color: light-dark(rgb(0, 0, 0), rgb(255, 255, 255));&quot;&gt;&lt;span style=&quot;font-weight: normal;&quot;&gt;&lt;font style=&quot;font-size: 20px;&quot;&gt;&amp;nbsp;(Star Schema)&lt;/font&gt;&lt;/span&gt;&lt;/span&gt;&lt;/h1&gt;" style="text;html=1;align=center;verticalAlign=middle;whiteSpace=wrap;rounded=0;" vertex="1" parent="1">
          <mxGeometry x="110" y="20" width="150" height="40" as="geometry" />
        </mxCell>
        <mxCell id="7GvM1YG2zj2Vh1NtfJTj-16" value="gold.dim_customers" style="shape=table;startSize=30;container=1;collapsible=1;childLayout=tableLayout;fixedRows=1;rowLines=0;fontStyle=1;align=center;resizeLast=1;html=1;rounded=1;fillColor=#FFD700;strokeColor=#FFD700;labelBackgroundColor=none;fontSize=16;swimlaneLine=1;verticalAlign=bottom;direction=east;flipH=1;flipV=0;" vertex="1" parent="1">
          <mxGeometry x="40" y="120" width="230" height="394" as="geometry" />
        </mxCell>
        <mxCell id="7GvM1YG2zj2Vh1NtfJTj-17" value="" style="shape=tableRow;horizontal=0;startSize=0;swimlaneHead=0;swimlaneBody=0;fillColor=none;collapsible=0;dropTarget=0;points=[[0,0.5],[1,0.5]];portConstraint=eastwest;top=0;left=0;right=0;bottom=1;strokeColor=#FFD700;fontStyle=1;verticalAlign=bottom;align=left;" vertex="1" parent="7GvM1YG2zj2Vh1NtfJTj-16">
          <mxGeometry y="30" width="230" height="50" as="geometry" />
        </mxCell>
        <mxCell id="7GvM1YG2zj2Vh1NtfJTj-18" value="&lt;font style=&quot;font-size: 16px;&quot;&gt;PK&lt;/font&gt;" style="shape=partialRectangle;connectable=0;fillColor=none;top=0;left=0;bottom=0;right=0;fontStyle=1;overflow=hidden;whiteSpace=wrap;html=1;strokeColor=#FFD700;verticalAlign=bottom;align=left;" vertex="1" parent="7GvM1YG2zj2Vh1NtfJTj-17">
          <mxGeometry width="30" height="50" as="geometry">
            <mxRectangle width="30" height="50" as="alternateBounds" />
          </mxGeometry>
        </mxCell>
        <mxCell id="7GvM1YG2zj2Vh1NtfJTj-19" value="&lt;font style=&quot;font-size: 16px; background-color: rgb(192, 192, 192);&quot;&gt;customers_key&lt;/font&gt;" style="shape=partialRectangle;connectable=0;fillColor=none;top=0;left=0;bottom=0;right=0;align=left;spacingLeft=6;fontStyle=5;overflow=hidden;whiteSpace=wrap;html=1;strokeColor=#FFD700;verticalAlign=bottom;" vertex="1" parent="7GvM1YG2zj2Vh1NtfJTj-17">
          <mxGeometry x="30" width="200" height="50" as="geometry">
            <mxRectangle width="200" height="50" as="alternateBounds" />
          </mxGeometry>
        </mxCell>
        <mxCell id="7GvM1YG2zj2Vh1NtfJTj-20" value="" style="shape=tableRow;horizontal=0;startSize=0;swimlaneHead=0;swimlaneBody=0;fillColor=none;collapsible=0;dropTarget=0;points=[[0,0.5],[1,0.5]];portConstraint=eastwest;top=0;left=0;right=0;bottom=0;fontSize=17;strokeColor=#FFD700;fontStyle=1;verticalAlign=bottom;align=left;" vertex="1" parent="7GvM1YG2zj2Vh1NtfJTj-16">
          <mxGeometry y="80" width="230" height="40" as="geometry" />
        </mxCell>
        <mxCell id="7GvM1YG2zj2Vh1NtfJTj-21" value="" style="shape=partialRectangle;connectable=0;fillColor=none;top=0;left=0;bottom=0;right=0;editable=1;overflow=hidden;whiteSpace=wrap;html=1;fontSize=17;strokeColor=#FFD700;fontStyle=1;verticalAlign=bottom;align=left;" vertex="1" parent="7GvM1YG2zj2Vh1NtfJTj-20">
          <mxGeometry width="30" height="40" as="geometry">
            <mxRectangle width="30" height="40" as="alternateBounds" />
          </mxGeometry>
        </mxCell>
        <mxCell id="7GvM1YG2zj2Vh1NtfJTj-22" value="customer_id" style="shape=partialRectangle;connectable=0;fillColor=none;top=0;left=0;bottom=0;right=0;align=left;spacingLeft=6;overflow=hidden;whiteSpace=wrap;html=1;fontSize=17;strokeColor=#FFD700;fontStyle=1;verticalAlign=bottom;" vertex="1" parent="7GvM1YG2zj2Vh1NtfJTj-20">
          <mxGeometry x="30" width="200" height="40" as="geometry">
            <mxRectangle width="200" height="40" as="alternateBounds" />
          </mxGeometry>
        </mxCell>
        <mxCell id="7GvM1YG2zj2Vh1NtfJTj-23" value="" style="shape=tableRow;horizontal=0;startSize=0;swimlaneHead=0;swimlaneBody=0;fillColor=none;collapsible=0;dropTarget=0;points=[[0,0.5],[1,0.5]];portConstraint=eastwest;top=0;left=0;right=0;bottom=0;fontSize=17;strokeColor=#FFD700;fontStyle=1;verticalAlign=bottom;align=left;" vertex="1" parent="7GvM1YG2zj2Vh1NtfJTj-16">
          <mxGeometry y="120" width="230" height="40" as="geometry" />
        </mxCell>
        <mxCell id="7GvM1YG2zj2Vh1NtfJTj-24" value="" style="shape=partialRectangle;connectable=0;fillColor=none;top=0;left=0;bottom=0;right=0;editable=1;overflow=hidden;whiteSpace=wrap;html=1;fontSize=17;strokeColor=#FFD700;fontStyle=1;verticalAlign=bottom;align=left;" vertex="1" parent="7GvM1YG2zj2Vh1NtfJTj-23">
          <mxGeometry width="30" height="40" as="geometry">
            <mxRectangle width="30" height="40" as="alternateBounds" />
          </mxGeometry>
        </mxCell>
        <mxCell id="7GvM1YG2zj2Vh1NtfJTj-25" value="customer_number&lt;span style=&quot;white-space: pre;&quot;&gt;&#x9;&lt;/span&gt;&lt;span style=&quot;white-space: pre;&quot;&gt;&#x9;&lt;/span&gt;" style="shape=partialRectangle;connectable=0;fillColor=none;top=0;left=0;bottom=0;right=0;align=left;spacingLeft=6;overflow=hidden;whiteSpace=wrap;html=1;fontSize=17;strokeColor=#FFD700;fontStyle=1;verticalAlign=bottom;" vertex="1" parent="7GvM1YG2zj2Vh1NtfJTj-23">
          <mxGeometry x="30" width="200" height="40" as="geometry">
            <mxRectangle width="200" height="40" as="alternateBounds" />
          </mxGeometry>
        </mxCell>
        <mxCell id="7GvM1YG2zj2Vh1NtfJTj-26" value="" style="shape=tableRow;horizontal=0;startSize=0;swimlaneHead=0;swimlaneBody=0;fillColor=none;collapsible=0;dropTarget=0;points=[[0,0.5],[1,0.5]];portConstraint=eastwest;top=0;left=0;right=0;bottom=0;fontSize=17;strokeColor=#FFD700;fontStyle=1;verticalAlign=bottom;align=left;" vertex="1" parent="7GvM1YG2zj2Vh1NtfJTj-16">
          <mxGeometry y="160" width="230" height="39" as="geometry" />
        </mxCell>
        <mxCell id="7GvM1YG2zj2Vh1NtfJTj-27" value="" style="shape=partialRectangle;connectable=0;fillColor=none;top=0;left=0;bottom=0;right=0;editable=1;overflow=hidden;whiteSpace=wrap;html=1;fontSize=17;strokeColor=#FFD700;fontStyle=1;verticalAlign=bottom;align=left;" vertex="1" parent="7GvM1YG2zj2Vh1NtfJTj-26">
          <mxGeometry width="30" height="39" as="geometry">
            <mxRectangle width="30" height="39" as="alternateBounds" />
          </mxGeometry>
        </mxCell>
        <mxCell id="7GvM1YG2zj2Vh1NtfJTj-28" value="first_name" style="shape=partialRectangle;connectable=0;fillColor=none;top=0;left=0;bottom=0;right=0;align=left;spacingLeft=6;overflow=hidden;whiteSpace=wrap;html=1;fontSize=17;strokeColor=#FFD700;fontStyle=1;verticalAlign=bottom;" vertex="1" parent="7GvM1YG2zj2Vh1NtfJTj-26">
          <mxGeometry x="30" width="200" height="39" as="geometry">
            <mxRectangle width="200" height="39" as="alternateBounds" />
          </mxGeometry>
        </mxCell>
        <mxCell id="7GvM1YG2zj2Vh1NtfJTj-44" value="" style="shape=tableRow;horizontal=0;startSize=0;swimlaneHead=0;swimlaneBody=0;fillColor=none;collapsible=0;dropTarget=0;points=[[0,0.5],[1,0.5]];portConstraint=eastwest;top=0;left=0;right=0;bottom=0;fontSize=17;strokeColor=#FFD700;fontStyle=1;verticalAlign=bottom;align=left;" vertex="1" parent="7GvM1YG2zj2Vh1NtfJTj-16">
          <mxGeometry y="199" width="230" height="39" as="geometry" />
        </mxCell>
        <mxCell id="7GvM1YG2zj2Vh1NtfJTj-45" value="" style="shape=partialRectangle;connectable=0;fillColor=none;top=0;left=0;bottom=0;right=0;editable=1;overflow=hidden;whiteSpace=wrap;html=1;fontSize=17;strokeColor=#FFD700;fontStyle=1;verticalAlign=bottom;align=left;" vertex="1" parent="7GvM1YG2zj2Vh1NtfJTj-44">
          <mxGeometry width="30" height="39" as="geometry">
            <mxRectangle width="30" height="39" as="alternateBounds" />
          </mxGeometry>
        </mxCell>
        <mxCell id="7GvM1YG2zj2Vh1NtfJTj-46" value="last_name" style="shape=partialRectangle;connectable=0;fillColor=none;top=0;left=0;bottom=0;right=0;align=left;spacingLeft=6;overflow=hidden;whiteSpace=wrap;html=1;fontSize=17;strokeColor=#FFD700;fontStyle=1;verticalAlign=bottom;" vertex="1" parent="7GvM1YG2zj2Vh1NtfJTj-44">
          <mxGeometry x="30" width="200" height="39" as="geometry">
            <mxRectangle width="200" height="39" as="alternateBounds" />
          </mxGeometry>
        </mxCell>
        <mxCell id="7GvM1YG2zj2Vh1NtfJTj-47" value="" style="shape=tableRow;horizontal=0;startSize=0;swimlaneHead=0;swimlaneBody=0;fillColor=none;collapsible=0;dropTarget=0;points=[[0,0.5],[1,0.5]];portConstraint=eastwest;top=0;left=0;right=0;bottom=0;fontSize=17;strokeColor=#FFD700;fontStyle=1;verticalAlign=bottom;align=left;" vertex="1" parent="7GvM1YG2zj2Vh1NtfJTj-16">
          <mxGeometry y="238" width="230" height="39" as="geometry" />
        </mxCell>
        <mxCell id="7GvM1YG2zj2Vh1NtfJTj-48" value="" style="shape=partialRectangle;connectable=0;fillColor=none;top=0;left=0;bottom=0;right=0;editable=1;overflow=hidden;whiteSpace=wrap;html=1;fontSize=17;strokeColor=#FFD700;fontStyle=1;verticalAlign=bottom;align=left;" vertex="1" parent="7GvM1YG2zj2Vh1NtfJTj-47">
          <mxGeometry width="30" height="39" as="geometry">
            <mxRectangle width="30" height="39" as="alternateBounds" />
          </mxGeometry>
        </mxCell>
        <mxCell id="7GvM1YG2zj2Vh1NtfJTj-49" value="country&lt;span style=&quot;white-space: pre;&quot;&gt;&#x9;&lt;/span&gt;&lt;span style=&quot;white-space: pre;&quot;&gt;&#x9;&lt;/span&gt;&lt;span style=&quot;white-space: pre;&quot;&gt;&#x9;&lt;/span&gt;&lt;span style=&quot;white-space: pre;&quot;&gt;&#x9;&lt;/span&gt;&lt;span style=&quot;white-space: pre;&quot;&gt;&#x9;&lt;/span&gt;" style="shape=partialRectangle;connectable=0;fillColor=none;top=0;left=0;bottom=0;right=0;align=left;spacingLeft=6;overflow=hidden;whiteSpace=wrap;html=1;fontSize=17;strokeColor=#FFD700;fontStyle=1;verticalAlign=bottom;" vertex="1" parent="7GvM1YG2zj2Vh1NtfJTj-47">
          <mxGeometry x="30" width="200" height="39" as="geometry">
            <mxRectangle width="200" height="39" as="alternateBounds" />
          </mxGeometry>
        </mxCell>
        <mxCell id="7GvM1YG2zj2Vh1NtfJTj-50" value="" style="shape=tableRow;horizontal=0;startSize=0;swimlaneHead=0;swimlaneBody=0;fillColor=none;collapsible=0;dropTarget=0;points=[[0,0.5],[1,0.5]];portConstraint=eastwest;top=0;left=0;right=0;bottom=0;fontSize=17;strokeColor=#FFD700;fontStyle=1;verticalAlign=bottom;align=left;" vertex="1" parent="7GvM1YG2zj2Vh1NtfJTj-16">
          <mxGeometry y="277" width="230" height="39" as="geometry" />
        </mxCell>
        <mxCell id="7GvM1YG2zj2Vh1NtfJTj-51" value="" style="shape=partialRectangle;connectable=0;fillColor=none;top=0;left=0;bottom=0;right=0;editable=1;overflow=hidden;whiteSpace=wrap;html=1;fontSize=17;strokeColor=#FFD700;fontStyle=1;verticalAlign=bottom;align=left;" vertex="1" parent="7GvM1YG2zj2Vh1NtfJTj-50">
          <mxGeometry width="30" height="39" as="geometry">
            <mxRectangle width="30" height="39" as="alternateBounds" />
          </mxGeometry>
        </mxCell>
        <mxCell id="7GvM1YG2zj2Vh1NtfJTj-52" value="marital_status" style="shape=partialRectangle;connectable=0;fillColor=none;top=0;left=0;bottom=0;right=0;align=left;spacingLeft=6;overflow=hidden;whiteSpace=wrap;html=1;fontSize=17;strokeColor=#FFD700;fontStyle=1;verticalAlign=bottom;" vertex="1" parent="7GvM1YG2zj2Vh1NtfJTj-50">
          <mxGeometry x="30" width="200" height="39" as="geometry">
            <mxRectangle width="200" height="39" as="alternateBounds" />
          </mxGeometry>
        </mxCell>
        <mxCell id="7GvM1YG2zj2Vh1NtfJTj-53" value="" style="shape=tableRow;horizontal=0;startSize=0;swimlaneHead=0;swimlaneBody=0;fillColor=none;collapsible=0;dropTarget=0;points=[[0,0.5],[1,0.5]];portConstraint=eastwest;top=0;left=0;right=0;bottom=0;fontSize=17;strokeColor=#FFD700;fontStyle=1;verticalAlign=bottom;align=left;" vertex="1" parent="7GvM1YG2zj2Vh1NtfJTj-16">
          <mxGeometry y="316" width="230" height="39" as="geometry" />
        </mxCell>
        <mxCell id="7GvM1YG2zj2Vh1NtfJTj-54" value="" style="shape=partialRectangle;connectable=0;fillColor=none;top=0;left=0;bottom=0;right=0;editable=1;overflow=hidden;whiteSpace=wrap;html=1;fontSize=17;strokeColor=#FFD700;fontStyle=1;verticalAlign=bottom;align=left;" vertex="1" parent="7GvM1YG2zj2Vh1NtfJTj-53">
          <mxGeometry width="30" height="39" as="geometry">
            <mxRectangle width="30" height="39" as="alternateBounds" />
          </mxGeometry>
        </mxCell>
        <mxCell id="7GvM1YG2zj2Vh1NtfJTj-55" value="gender" style="shape=partialRectangle;connectable=0;fillColor=none;top=0;left=0;bottom=0;right=0;align=left;spacingLeft=6;overflow=hidden;whiteSpace=wrap;html=1;fontSize=17;strokeColor=#FFD700;fontStyle=1;verticalAlign=bottom;" vertex="1" parent="7GvM1YG2zj2Vh1NtfJTj-53">
          <mxGeometry x="30" width="200" height="39" as="geometry">
            <mxRectangle width="200" height="39" as="alternateBounds" />
          </mxGeometry>
        </mxCell>
        <mxCell id="7GvM1YG2zj2Vh1NtfJTj-56" value="" style="shape=tableRow;horizontal=0;startSize=0;swimlaneHead=0;swimlaneBody=0;fillColor=none;collapsible=0;dropTarget=0;points=[[0,0.5],[1,0.5]];portConstraint=eastwest;top=0;left=0;right=0;bottom=0;fontSize=17;strokeColor=#FFD700;fontStyle=1;verticalAlign=bottom;align=left;" vertex="1" parent="7GvM1YG2zj2Vh1NtfJTj-16">
          <mxGeometry y="355" width="230" height="39" as="geometry" />
        </mxCell>
        <mxCell id="7GvM1YG2zj2Vh1NtfJTj-57" value="" style="shape=partialRectangle;connectable=0;fillColor=none;top=0;left=0;bottom=0;right=0;editable=1;overflow=hidden;whiteSpace=wrap;html=1;fontSize=17;strokeColor=#FFD700;fontStyle=1;verticalAlign=bottom;align=left;" vertex="1" parent="7GvM1YG2zj2Vh1NtfJTj-56">
          <mxGeometry width="30" height="39" as="geometry">
            <mxRectangle width="30" height="39" as="alternateBounds" />
          </mxGeometry>
        </mxCell>
        <mxCell id="7GvM1YG2zj2Vh1NtfJTj-58" value="Birthdate" style="shape=partialRectangle;connectable=0;fillColor=none;top=0;left=0;bottom=0;right=0;align=left;spacingLeft=6;overflow=hidden;whiteSpace=wrap;html=1;fontSize=17;strokeColor=#FFD700;fontStyle=1;verticalAlign=bottom;" vertex="1" parent="7GvM1YG2zj2Vh1NtfJTj-56">
          <mxGeometry x="30" width="200" height="39" as="geometry">
            <mxRectangle width="200" height="39" as="alternateBounds" />
          </mxGeometry>
        </mxCell>
        <mxCell id="7GvM1YG2zj2Vh1NtfJTj-98" value="gold.fact_sales" style="shape=table;startSize=30;container=1;collapsible=1;childLayout=tableLayout;fixedRows=1;rowLines=0;fontStyle=1;align=center;resizeLast=1;html=1;rounded=1;fillColor=#dae8fc;strokeColor=#6c8ebf;labelBackgroundColor=none;fontSize=16;swimlaneLine=1;verticalAlign=bottom;direction=east;flipH=1;flipV=0;" vertex="1" parent="1">
          <mxGeometry x="450" y="120" width="230" height="383" as="geometry" />
        </mxCell>
        <mxCell id="7GvM1YG2zj2Vh1NtfJTj-102" value="" style="shape=tableRow;horizontal=0;startSize=0;swimlaneHead=0;swimlaneBody=0;fillColor=none;collapsible=0;dropTarget=0;points=[[0,0.5],[1,0.5]];portConstraint=eastwest;top=0;left=0;right=0;bottom=0;fontSize=17;strokeColor=#FFD700;fontStyle=1;verticalAlign=bottom;align=left;" vertex="1" parent="7GvM1YG2zj2Vh1NtfJTj-98">
          <mxGeometry y="30" width="230" height="40" as="geometry" />
        </mxCell>
        <mxCell id="7GvM1YG2zj2Vh1NtfJTj-103" value="" style="shape=partialRectangle;connectable=0;fillColor=none;top=0;left=0;bottom=0;right=0;editable=1;overflow=hidden;whiteSpace=wrap;html=1;fontSize=17;strokeColor=#FFD700;fontStyle=1;verticalAlign=bottom;align=left;" vertex="1" parent="7GvM1YG2zj2Vh1NtfJTj-102">
          <mxGeometry width="40" height="40" as="geometry">
            <mxRectangle width="40" height="40" as="alternateBounds" />
          </mxGeometry>
        </mxCell>
        <mxCell id="7GvM1YG2zj2Vh1NtfJTj-104" value="order_number" style="shape=partialRectangle;connectable=0;fillColor=none;top=0;left=0;bottom=0;right=0;align=left;spacingLeft=6;overflow=hidden;whiteSpace=wrap;html=1;fontSize=17;strokeColor=#FFD700;fontStyle=1;verticalAlign=bottom;" vertex="1" parent="7GvM1YG2zj2Vh1NtfJTj-102">
          <mxGeometry x="40" width="190" height="40" as="geometry">
            <mxRectangle width="190" height="40" as="alternateBounds" />
          </mxGeometry>
        </mxCell>
        <mxCell id="7GvM1YG2zj2Vh1NtfJTj-105" value="" style="shape=tableRow;horizontal=0;startSize=0;swimlaneHead=0;swimlaneBody=0;fillColor=none;collapsible=0;dropTarget=0;points=[[0,0.5],[1,0.5]];portConstraint=eastwest;top=0;left=0;right=0;bottom=0;fontSize=17;strokeColor=#FFD700;fontStyle=1;verticalAlign=bottom;align=left;" vertex="1" parent="7GvM1YG2zj2Vh1NtfJTj-98">
          <mxGeometry y="70" width="230" height="40" as="geometry" />
        </mxCell>
        <mxCell id="7GvM1YG2zj2Vh1NtfJTj-106" value="FK1" style="shape=partialRectangle;connectable=0;fillColor=none;top=0;left=0;bottom=0;right=0;editable=1;overflow=hidden;whiteSpace=wrap;html=1;fontSize=17;strokeColor=#FFD700;fontStyle=1;verticalAlign=bottom;align=left;" vertex="1" parent="7GvM1YG2zj2Vh1NtfJTj-105">
          <mxGeometry width="40" height="40" as="geometry">
            <mxRectangle width="40" height="40" as="alternateBounds" />
          </mxGeometry>
        </mxCell>
        <mxCell id="7GvM1YG2zj2Vh1NtfJTj-107" value="&lt;span style=&quot;background-color: rgb(192, 192, 192);&quot;&gt;product_key&lt;/span&gt;" style="shape=partialRectangle;connectable=0;fillColor=none;top=0;left=0;bottom=0;right=0;align=left;spacingLeft=6;overflow=hidden;whiteSpace=wrap;html=1;fontSize=17;strokeColor=#FFD700;fontStyle=1;verticalAlign=bottom;" vertex="1" parent="7GvM1YG2zj2Vh1NtfJTj-105">
          <mxGeometry x="40" width="190" height="40" as="geometry">
            <mxRectangle width="190" height="40" as="alternateBounds" />
          </mxGeometry>
        </mxCell>
        <mxCell id="7GvM1YG2zj2Vh1NtfJTj-108" value="" style="shape=tableRow;horizontal=0;startSize=0;swimlaneHead=0;swimlaneBody=0;fillColor=none;collapsible=0;dropTarget=0;points=[[0,0.5],[1,0.5]];portConstraint=eastwest;top=0;left=0;right=0;bottom=0;fontSize=17;strokeColor=#FFD700;fontStyle=1;verticalAlign=bottom;align=left;" vertex="1" parent="7GvM1YG2zj2Vh1NtfJTj-98">
          <mxGeometry y="110" width="230" height="39" as="geometry" />
        </mxCell>
        <mxCell id="7GvM1YG2zj2Vh1NtfJTj-109" value="FK2" style="shape=partialRectangle;connectable=0;fillColor=none;top=0;left=0;bottom=0;right=0;editable=1;overflow=hidden;whiteSpace=wrap;html=1;fontSize=17;strokeColor=#FFD700;fontStyle=1;verticalAlign=bottom;align=left;" vertex="1" parent="7GvM1YG2zj2Vh1NtfJTj-108">
          <mxGeometry width="40" height="39" as="geometry">
            <mxRectangle width="40" height="39" as="alternateBounds" />
          </mxGeometry>
        </mxCell>
        <mxCell id="7GvM1YG2zj2Vh1NtfJTj-110" value="&lt;span style=&quot;background-color: rgb(227, 227, 227);&quot;&gt;customer_key&lt;/span&gt;" style="shape=partialRectangle;connectable=0;fillColor=none;top=0;left=0;bottom=0;right=0;align=left;spacingLeft=6;overflow=hidden;whiteSpace=wrap;html=1;fontSize=17;strokeColor=#FFD700;fontStyle=1;verticalAlign=bottom;" vertex="1" parent="7GvM1YG2zj2Vh1NtfJTj-108">
          <mxGeometry x="40" width="190" height="39" as="geometry">
            <mxRectangle width="190" height="39" as="alternateBounds" />
          </mxGeometry>
        </mxCell>
        <mxCell id="7GvM1YG2zj2Vh1NtfJTj-111" value="" style="shape=tableRow;horizontal=0;startSize=0;swimlaneHead=0;swimlaneBody=0;fillColor=none;collapsible=0;dropTarget=0;points=[[0,0.5],[1,0.5]];portConstraint=eastwest;top=0;left=0;right=0;bottom=0;fontSize=17;strokeColor=#FFD700;fontStyle=1;verticalAlign=bottom;align=left;" vertex="1" parent="7GvM1YG2zj2Vh1NtfJTj-98">
          <mxGeometry y="149" width="230" height="39" as="geometry" />
        </mxCell>
        <mxCell id="7GvM1YG2zj2Vh1NtfJTj-112" value="" style="shape=partialRectangle;connectable=0;fillColor=none;top=0;left=0;bottom=0;right=0;editable=1;overflow=hidden;whiteSpace=wrap;html=1;fontSize=17;strokeColor=#FFD700;fontStyle=1;verticalAlign=bottom;align=left;" vertex="1" parent="7GvM1YG2zj2Vh1NtfJTj-111">
          <mxGeometry width="40" height="39" as="geometry">
            <mxRectangle width="40" height="39" as="alternateBounds" />
          </mxGeometry>
        </mxCell>
        <mxCell id="7GvM1YG2zj2Vh1NtfJTj-113" value="order_date" style="shape=partialRectangle;connectable=0;fillColor=none;top=0;left=0;bottom=0;right=0;align=left;spacingLeft=6;overflow=hidden;whiteSpace=wrap;html=1;fontSize=17;strokeColor=#FFD700;fontStyle=1;verticalAlign=bottom;" vertex="1" parent="7GvM1YG2zj2Vh1NtfJTj-111">
          <mxGeometry x="40" width="190" height="39" as="geometry">
            <mxRectangle width="190" height="39" as="alternateBounds" />
          </mxGeometry>
        </mxCell>
        <mxCell id="7GvM1YG2zj2Vh1NtfJTj-114" value="" style="shape=tableRow;horizontal=0;startSize=0;swimlaneHead=0;swimlaneBody=0;fillColor=none;collapsible=0;dropTarget=0;points=[[0,0.5],[1,0.5]];portConstraint=eastwest;top=0;left=0;right=0;bottom=0;fontSize=17;strokeColor=#FFD700;fontStyle=1;verticalAlign=bottom;align=left;" vertex="1" parent="7GvM1YG2zj2Vh1NtfJTj-98">
          <mxGeometry y="188" width="230" height="39" as="geometry" />
        </mxCell>
        <mxCell id="7GvM1YG2zj2Vh1NtfJTj-115" value="" style="shape=partialRectangle;connectable=0;fillColor=none;top=0;left=0;bottom=0;right=0;editable=1;overflow=hidden;whiteSpace=wrap;html=1;fontSize=17;strokeColor=#FFD700;fontStyle=1;verticalAlign=bottom;align=left;" vertex="1" parent="7GvM1YG2zj2Vh1NtfJTj-114">
          <mxGeometry width="40" height="39" as="geometry">
            <mxRectangle width="40" height="39" as="alternateBounds" />
          </mxGeometry>
        </mxCell>
        <mxCell id="7GvM1YG2zj2Vh1NtfJTj-116" value="shipping_date" style="shape=partialRectangle;connectable=0;fillColor=none;top=0;left=0;bottom=0;right=0;align=left;spacingLeft=6;overflow=hidden;whiteSpace=wrap;html=1;fontSize=17;strokeColor=#FFD700;fontStyle=1;verticalAlign=bottom;" vertex="1" parent="7GvM1YG2zj2Vh1NtfJTj-114">
          <mxGeometry x="40" width="190" height="39" as="geometry">
            <mxRectangle width="190" height="39" as="alternateBounds" />
          </mxGeometry>
        </mxCell>
        <mxCell id="7GvM1YG2zj2Vh1NtfJTj-117" value="" style="shape=tableRow;horizontal=0;startSize=0;swimlaneHead=0;swimlaneBody=0;fillColor=none;collapsible=0;dropTarget=0;points=[[0,0.5],[1,0.5]];portConstraint=eastwest;top=0;left=0;right=0;bottom=0;fontSize=17;strokeColor=#FFD700;fontStyle=1;verticalAlign=bottom;align=left;" vertex="1" parent="7GvM1YG2zj2Vh1NtfJTj-98">
          <mxGeometry y="227" width="230" height="39" as="geometry" />
        </mxCell>
        <mxCell id="7GvM1YG2zj2Vh1NtfJTj-118" value="" style="shape=partialRectangle;connectable=0;fillColor=none;top=0;left=0;bottom=0;right=0;editable=1;overflow=hidden;whiteSpace=wrap;html=1;fontSize=17;strokeColor=#FFD700;fontStyle=1;verticalAlign=bottom;align=left;" vertex="1" parent="7GvM1YG2zj2Vh1NtfJTj-117">
          <mxGeometry width="40" height="39" as="geometry">
            <mxRectangle width="40" height="39" as="alternateBounds" />
          </mxGeometry>
        </mxCell>
        <mxCell id="7GvM1YG2zj2Vh1NtfJTj-119" value="due_date" style="shape=partialRectangle;connectable=0;fillColor=none;top=0;left=0;bottom=0;right=0;align=left;spacingLeft=6;overflow=hidden;whiteSpace=wrap;html=1;fontSize=17;strokeColor=#FFD700;fontStyle=1;verticalAlign=bottom;" vertex="1" parent="7GvM1YG2zj2Vh1NtfJTj-117">
          <mxGeometry x="40" width="190" height="39" as="geometry">
            <mxRectangle width="190" height="39" as="alternateBounds" />
          </mxGeometry>
        </mxCell>
        <mxCell id="7GvM1YG2zj2Vh1NtfJTj-120" value="" style="shape=tableRow;horizontal=0;startSize=0;swimlaneHead=0;swimlaneBody=0;fillColor=none;collapsible=0;dropTarget=0;points=[[0,0.5],[1,0.5]];portConstraint=eastwest;top=0;left=0;right=0;bottom=0;fontSize=17;strokeColor=#FFD700;fontStyle=1;verticalAlign=bottom;align=left;" vertex="1" parent="7GvM1YG2zj2Vh1NtfJTj-98">
          <mxGeometry y="266" width="230" height="39" as="geometry" />
        </mxCell>
        <mxCell id="7GvM1YG2zj2Vh1NtfJTj-121" value="" style="shape=partialRectangle;connectable=0;fillColor=none;top=0;left=0;bottom=0;right=0;editable=1;overflow=hidden;whiteSpace=wrap;html=1;fontSize=17;strokeColor=#FFD700;fontStyle=1;verticalAlign=bottom;align=left;" vertex="1" parent="7GvM1YG2zj2Vh1NtfJTj-120">
          <mxGeometry width="40" height="39" as="geometry">
            <mxRectangle width="40" height="39" as="alternateBounds" />
          </mxGeometry>
        </mxCell>
        <mxCell id="7GvM1YG2zj2Vh1NtfJTj-122" value="sales_amount" style="shape=partialRectangle;connectable=0;fillColor=none;top=0;left=0;bottom=0;right=0;align=left;spacingLeft=6;overflow=hidden;whiteSpace=wrap;html=1;fontSize=17;strokeColor=#FFD700;fontStyle=1;verticalAlign=bottom;" vertex="1" parent="7GvM1YG2zj2Vh1NtfJTj-120">
          <mxGeometry x="40" width="190" height="39" as="geometry">
            <mxRectangle width="190" height="39" as="alternateBounds" />
          </mxGeometry>
        </mxCell>
        <mxCell id="7GvM1YG2zj2Vh1NtfJTj-123" value="" style="shape=tableRow;horizontal=0;startSize=0;swimlaneHead=0;swimlaneBody=0;fillColor=none;collapsible=0;dropTarget=0;points=[[0,0.5],[1,0.5]];portConstraint=eastwest;top=0;left=0;right=0;bottom=0;fontSize=17;strokeColor=#FFD700;fontStyle=1;verticalAlign=bottom;align=left;" vertex="1" parent="7GvM1YG2zj2Vh1NtfJTj-98">
          <mxGeometry y="305" width="230" height="39" as="geometry" />
        </mxCell>
        <mxCell id="7GvM1YG2zj2Vh1NtfJTj-124" value="" style="shape=partialRectangle;connectable=0;fillColor=none;top=0;left=0;bottom=0;right=0;editable=1;overflow=hidden;whiteSpace=wrap;html=1;fontSize=17;strokeColor=#FFD700;fontStyle=1;verticalAlign=bottom;align=left;" vertex="1" parent="7GvM1YG2zj2Vh1NtfJTj-123">
          <mxGeometry width="40" height="39" as="geometry">
            <mxRectangle width="40" height="39" as="alternateBounds" />
          </mxGeometry>
        </mxCell>
        <mxCell id="7GvM1YG2zj2Vh1NtfJTj-125" value="quantity" style="shape=partialRectangle;connectable=0;fillColor=none;top=0;left=0;bottom=0;right=0;align=left;spacingLeft=6;overflow=hidden;whiteSpace=wrap;html=1;fontSize=17;strokeColor=#FFD700;fontStyle=1;verticalAlign=bottom;" vertex="1" parent="7GvM1YG2zj2Vh1NtfJTj-123">
          <mxGeometry x="40" width="190" height="39" as="geometry">
            <mxRectangle width="190" height="39" as="alternateBounds" />
          </mxGeometry>
        </mxCell>
        <mxCell id="7GvM1YG2zj2Vh1NtfJTj-126" style="shape=tableRow;horizontal=0;startSize=0;swimlaneHead=0;swimlaneBody=0;fillColor=none;collapsible=0;dropTarget=0;points=[[0,0.5],[1,0.5]];portConstraint=eastwest;top=0;left=0;right=0;bottom=0;fontSize=17;strokeColor=#FFD700;fontStyle=1;verticalAlign=bottom;align=left;" vertex="1" parent="7GvM1YG2zj2Vh1NtfJTj-98">
          <mxGeometry y="344" width="230" height="39" as="geometry" />
        </mxCell>
        <mxCell id="7GvM1YG2zj2Vh1NtfJTj-127" style="shape=partialRectangle;connectable=0;fillColor=none;top=0;left=0;bottom=0;right=0;editable=1;overflow=hidden;whiteSpace=wrap;html=1;fontSize=17;strokeColor=#FFD700;fontStyle=1;verticalAlign=bottom;align=left;" vertex="1" parent="7GvM1YG2zj2Vh1NtfJTj-126">
          <mxGeometry width="40" height="39" as="geometry">
            <mxRectangle width="40" height="39" as="alternateBounds" />
          </mxGeometry>
        </mxCell>
        <mxCell id="7GvM1YG2zj2Vh1NtfJTj-128" value="price" style="shape=partialRectangle;connectable=0;fillColor=none;top=0;left=0;bottom=0;right=0;align=left;spacingLeft=6;overflow=hidden;whiteSpace=wrap;html=1;fontSize=17;strokeColor=#FFD700;fontStyle=1;verticalAlign=bottom;" vertex="1" parent="7GvM1YG2zj2Vh1NtfJTj-126">
          <mxGeometry x="40" width="190" height="39" as="geometry">
            <mxRectangle width="190" height="39" as="alternateBounds" />
          </mxGeometry>
        </mxCell>
        <mxCell id="7GvM1YG2zj2Vh1NtfJTj-160" value="gold.dim_products" style="shape=table;startSize=30;container=1;collapsible=1;childLayout=tableLayout;fixedRows=1;rowLines=0;fontStyle=1;align=center;resizeLast=1;html=1;rounded=1;fillColor=#FFD700;strokeColor=#FFD700;labelBackgroundColor=none;fontSize=16;swimlaneLine=1;verticalAlign=bottom;direction=east;flipH=1;flipV=0;" vertex="1" parent="1">
          <mxGeometry x="870" y="120" width="230" height="433" as="geometry" />
        </mxCell>
        <mxCell id="7GvM1YG2zj2Vh1NtfJTj-161" value="" style="shape=tableRow;horizontal=0;startSize=0;swimlaneHead=0;swimlaneBody=0;fillColor=none;collapsible=0;dropTarget=0;points=[[0,0.5],[1,0.5]];portConstraint=eastwest;top=0;left=0;right=0;bottom=1;strokeColor=#FFD700;fontStyle=1;verticalAlign=bottom;align=left;" vertex="1" parent="7GvM1YG2zj2Vh1NtfJTj-160">
          <mxGeometry y="30" width="230" height="50" as="geometry" />
        </mxCell>
        <mxCell id="7GvM1YG2zj2Vh1NtfJTj-162" value="&lt;font style=&quot;font-size: 16px;&quot;&gt;PK&lt;/font&gt;" style="shape=partialRectangle;connectable=0;fillColor=none;top=0;left=0;bottom=0;right=0;fontStyle=1;overflow=hidden;whiteSpace=wrap;html=1;strokeColor=#FFD700;verticalAlign=bottom;align=left;" vertex="1" parent="7GvM1YG2zj2Vh1NtfJTj-161">
          <mxGeometry width="30" height="50" as="geometry">
            <mxRectangle width="30" height="50" as="alternateBounds" />
          </mxGeometry>
        </mxCell>
        <mxCell id="7GvM1YG2zj2Vh1NtfJTj-163" value="&lt;font style=&quot;font-size: 16px; background-color: rgb(192, 192, 192);&quot;&gt;product_key&lt;/font&gt;" style="shape=partialRectangle;connectable=0;fillColor=none;top=0;left=0;bottom=0;right=0;align=left;spacingLeft=6;fontStyle=5;overflow=hidden;whiteSpace=wrap;html=1;strokeColor=#FFD700;verticalAlign=bottom;" vertex="1" parent="7GvM1YG2zj2Vh1NtfJTj-161">
          <mxGeometry x="30" width="200" height="50" as="geometry">
            <mxRectangle width="200" height="50" as="alternateBounds" />
          </mxGeometry>
        </mxCell>
        <mxCell id="7GvM1YG2zj2Vh1NtfJTj-164" value="" style="shape=tableRow;horizontal=0;startSize=0;swimlaneHead=0;swimlaneBody=0;fillColor=none;collapsible=0;dropTarget=0;points=[[0,0.5],[1,0.5]];portConstraint=eastwest;top=0;left=0;right=0;bottom=0;fontSize=17;strokeColor=#FFD700;fontStyle=1;verticalAlign=bottom;align=left;" vertex="1" parent="7GvM1YG2zj2Vh1NtfJTj-160">
          <mxGeometry y="80" width="230" height="40" as="geometry" />
        </mxCell>
        <mxCell id="7GvM1YG2zj2Vh1NtfJTj-165" value="" style="shape=partialRectangle;connectable=0;fillColor=none;top=0;left=0;bottom=0;right=0;editable=1;overflow=hidden;whiteSpace=wrap;html=1;fontSize=17;strokeColor=#FFD700;fontStyle=1;verticalAlign=bottom;align=left;" vertex="1" parent="7GvM1YG2zj2Vh1NtfJTj-164">
          <mxGeometry width="30" height="40" as="geometry">
            <mxRectangle width="30" height="40" as="alternateBounds" />
          </mxGeometry>
        </mxCell>
        <mxCell id="7GvM1YG2zj2Vh1NtfJTj-166" value="product_key" style="shape=partialRectangle;connectable=0;fillColor=none;top=0;left=0;bottom=0;right=0;align=left;spacingLeft=6;overflow=hidden;whiteSpace=wrap;html=1;fontSize=17;strokeColor=#FFD700;fontStyle=1;verticalAlign=bottom;" vertex="1" parent="7GvM1YG2zj2Vh1NtfJTj-164">
          <mxGeometry x="30" width="200" height="40" as="geometry">
            <mxRectangle width="200" height="40" as="alternateBounds" />
          </mxGeometry>
        </mxCell>
        <mxCell id="7GvM1YG2zj2Vh1NtfJTj-167" value="" style="shape=tableRow;horizontal=0;startSize=0;swimlaneHead=0;swimlaneBody=0;fillColor=none;collapsible=0;dropTarget=0;points=[[0,0.5],[1,0.5]];portConstraint=eastwest;top=0;left=0;right=0;bottom=0;fontSize=17;strokeColor=#FFD700;fontStyle=1;verticalAlign=bottom;align=left;" vertex="1" parent="7GvM1YG2zj2Vh1NtfJTj-160">
          <mxGeometry y="120" width="230" height="40" as="geometry" />
        </mxCell>
        <mxCell id="7GvM1YG2zj2Vh1NtfJTj-168" value="" style="shape=partialRectangle;connectable=0;fillColor=none;top=0;left=0;bottom=0;right=0;editable=1;overflow=hidden;whiteSpace=wrap;html=1;fontSize=17;strokeColor=#FFD700;fontStyle=1;verticalAlign=bottom;align=left;" vertex="1" parent="7GvM1YG2zj2Vh1NtfJTj-167">
          <mxGeometry width="30" height="40" as="geometry">
            <mxRectangle width="30" height="40" as="alternateBounds" />
          </mxGeometry>
        </mxCell>
        <mxCell id="7GvM1YG2zj2Vh1NtfJTj-169" value="product_number&lt;span style=&quot;white-space: pre;&quot;&gt;&#x9;&lt;/span&gt;&lt;span style=&quot;white-space: pre;&quot;&gt;&#x9;&lt;/span&gt;" style="shape=partialRectangle;connectable=0;fillColor=none;top=0;left=0;bottom=0;right=0;align=left;spacingLeft=6;overflow=hidden;whiteSpace=wrap;html=1;fontSize=17;strokeColor=#FFD700;fontStyle=1;verticalAlign=bottom;" vertex="1" parent="7GvM1YG2zj2Vh1NtfJTj-167">
          <mxGeometry x="30" width="200" height="40" as="geometry">
            <mxRectangle width="200" height="40" as="alternateBounds" />
          </mxGeometry>
        </mxCell>
        <mxCell id="7GvM1YG2zj2Vh1NtfJTj-170" value="" style="shape=tableRow;horizontal=0;startSize=0;swimlaneHead=0;swimlaneBody=0;fillColor=none;collapsible=0;dropTarget=0;points=[[0,0.5],[1,0.5]];portConstraint=eastwest;top=0;left=0;right=0;bottom=0;fontSize=17;strokeColor=#FFD700;fontStyle=1;verticalAlign=bottom;align=left;" vertex="1" parent="7GvM1YG2zj2Vh1NtfJTj-160">
          <mxGeometry y="160" width="230" height="39" as="geometry" />
        </mxCell>
        <mxCell id="7GvM1YG2zj2Vh1NtfJTj-171" value="" style="shape=partialRectangle;connectable=0;fillColor=none;top=0;left=0;bottom=0;right=0;editable=1;overflow=hidden;whiteSpace=wrap;html=1;fontSize=17;strokeColor=#FFD700;fontStyle=1;verticalAlign=bottom;align=left;" vertex="1" parent="7GvM1YG2zj2Vh1NtfJTj-170">
          <mxGeometry width="30" height="39" as="geometry">
            <mxRectangle width="30" height="39" as="alternateBounds" />
          </mxGeometry>
        </mxCell>
        <mxCell id="7GvM1YG2zj2Vh1NtfJTj-172" value="category_id" style="shape=partialRectangle;connectable=0;fillColor=none;top=0;left=0;bottom=0;right=0;align=left;spacingLeft=6;overflow=hidden;whiteSpace=wrap;html=1;fontSize=17;strokeColor=#FFD700;fontStyle=1;verticalAlign=bottom;" vertex="1" parent="7GvM1YG2zj2Vh1NtfJTj-170">
          <mxGeometry x="30" width="200" height="39" as="geometry">
            <mxRectangle width="200" height="39" as="alternateBounds" />
          </mxGeometry>
        </mxCell>
        <mxCell id="7GvM1YG2zj2Vh1NtfJTj-173" value="" style="shape=tableRow;horizontal=0;startSize=0;swimlaneHead=0;swimlaneBody=0;fillColor=none;collapsible=0;dropTarget=0;points=[[0,0.5],[1,0.5]];portConstraint=eastwest;top=0;left=0;right=0;bottom=0;fontSize=17;strokeColor=#FFD700;fontStyle=1;verticalAlign=bottom;align=left;" vertex="1" parent="7GvM1YG2zj2Vh1NtfJTj-160">
          <mxGeometry y="199" width="230" height="39" as="geometry" />
        </mxCell>
        <mxCell id="7GvM1YG2zj2Vh1NtfJTj-174" value="" style="shape=partialRectangle;connectable=0;fillColor=none;top=0;left=0;bottom=0;right=0;editable=1;overflow=hidden;whiteSpace=wrap;html=1;fontSize=17;strokeColor=#FFD700;fontStyle=1;verticalAlign=bottom;align=left;" vertex="1" parent="7GvM1YG2zj2Vh1NtfJTj-173">
          <mxGeometry width="30" height="39" as="geometry">
            <mxRectangle width="30" height="39" as="alternateBounds" />
          </mxGeometry>
        </mxCell>
        <mxCell id="7GvM1YG2zj2Vh1NtfJTj-175" value="category" style="shape=partialRectangle;connectable=0;fillColor=none;top=0;left=0;bottom=0;right=0;align=left;spacingLeft=6;overflow=hidden;whiteSpace=wrap;html=1;fontSize=17;strokeColor=#FFD700;fontStyle=1;verticalAlign=bottom;" vertex="1" parent="7GvM1YG2zj2Vh1NtfJTj-173">
          <mxGeometry x="30" width="200" height="39" as="geometry">
            <mxRectangle width="200" height="39" as="alternateBounds" />
          </mxGeometry>
        </mxCell>
        <mxCell id="7GvM1YG2zj2Vh1NtfJTj-176" value="" style="shape=tableRow;horizontal=0;startSize=0;swimlaneHead=0;swimlaneBody=0;fillColor=none;collapsible=0;dropTarget=0;points=[[0,0.5],[1,0.5]];portConstraint=eastwest;top=0;left=0;right=0;bottom=0;fontSize=17;strokeColor=#FFD700;fontStyle=1;verticalAlign=bottom;align=left;" vertex="1" parent="7GvM1YG2zj2Vh1NtfJTj-160">
          <mxGeometry y="238" width="230" height="39" as="geometry" />
        </mxCell>
        <mxCell id="7GvM1YG2zj2Vh1NtfJTj-177" value="" style="shape=partialRectangle;connectable=0;fillColor=none;top=0;left=0;bottom=0;right=0;editable=1;overflow=hidden;whiteSpace=wrap;html=1;fontSize=17;strokeColor=#FFD700;fontStyle=1;verticalAlign=bottom;align=left;" vertex="1" parent="7GvM1YG2zj2Vh1NtfJTj-176">
          <mxGeometry width="30" height="39" as="geometry">
            <mxRectangle width="30" height="39" as="alternateBounds" />
          </mxGeometry>
        </mxCell>
        <mxCell id="7GvM1YG2zj2Vh1NtfJTj-178" value="subcategory" style="shape=partialRectangle;connectable=0;fillColor=none;top=0;left=0;bottom=0;right=0;align=left;spacingLeft=6;overflow=hidden;whiteSpace=wrap;html=1;fontSize=17;strokeColor=#FFD700;fontStyle=1;verticalAlign=bottom;" vertex="1" parent="7GvM1YG2zj2Vh1NtfJTj-176">
          <mxGeometry x="30" width="200" height="39" as="geometry">
            <mxRectangle width="200" height="39" as="alternateBounds" />
          </mxGeometry>
        </mxCell>
        <mxCell id="7GvM1YG2zj2Vh1NtfJTj-179" value="" style="shape=tableRow;horizontal=0;startSize=0;swimlaneHead=0;swimlaneBody=0;fillColor=none;collapsible=0;dropTarget=0;points=[[0,0.5],[1,0.5]];portConstraint=eastwest;top=0;left=0;right=0;bottom=0;fontSize=17;strokeColor=#FFD700;fontStyle=1;verticalAlign=bottom;align=left;" vertex="1" parent="7GvM1YG2zj2Vh1NtfJTj-160">
          <mxGeometry y="277" width="230" height="39" as="geometry" />
        </mxCell>
        <mxCell id="7GvM1YG2zj2Vh1NtfJTj-180" value="" style="shape=partialRectangle;connectable=0;fillColor=none;top=0;left=0;bottom=0;right=0;editable=1;overflow=hidden;whiteSpace=wrap;html=1;fontSize=17;strokeColor=#FFD700;fontStyle=1;verticalAlign=bottom;align=left;" vertex="1" parent="7GvM1YG2zj2Vh1NtfJTj-179">
          <mxGeometry width="30" height="39" as="geometry">
            <mxRectangle width="30" height="39" as="alternateBounds" />
          </mxGeometry>
        </mxCell>
        <mxCell id="7GvM1YG2zj2Vh1NtfJTj-181" value="maintenance" style="shape=partialRectangle;connectable=0;fillColor=none;top=0;left=0;bottom=0;right=0;align=left;spacingLeft=6;overflow=hidden;whiteSpace=wrap;html=1;fontSize=17;strokeColor=#FFD700;fontStyle=1;verticalAlign=bottom;" vertex="1" parent="7GvM1YG2zj2Vh1NtfJTj-179">
          <mxGeometry x="30" width="200" height="39" as="geometry">
            <mxRectangle width="200" height="39" as="alternateBounds" />
          </mxGeometry>
        </mxCell>
        <mxCell id="7GvM1YG2zj2Vh1NtfJTj-182" value="" style="shape=tableRow;horizontal=0;startSize=0;swimlaneHead=0;swimlaneBody=0;fillColor=none;collapsible=0;dropTarget=0;points=[[0,0.5],[1,0.5]];portConstraint=eastwest;top=0;left=0;right=0;bottom=0;fontSize=17;strokeColor=#FFD700;fontStyle=1;verticalAlign=bottom;align=left;" vertex="1" parent="7GvM1YG2zj2Vh1NtfJTj-160">
          <mxGeometry y="316" width="230" height="39" as="geometry" />
        </mxCell>
        <mxCell id="7GvM1YG2zj2Vh1NtfJTj-183" value="" style="shape=partialRectangle;connectable=0;fillColor=none;top=0;left=0;bottom=0;right=0;editable=1;overflow=hidden;whiteSpace=wrap;html=1;fontSize=17;strokeColor=#FFD700;fontStyle=1;verticalAlign=bottom;align=left;" vertex="1" parent="7GvM1YG2zj2Vh1NtfJTj-182">
          <mxGeometry width="30" height="39" as="geometry">
            <mxRectangle width="30" height="39" as="alternateBounds" />
          </mxGeometry>
        </mxCell>
        <mxCell id="7GvM1YG2zj2Vh1NtfJTj-184" value="cost" style="shape=partialRectangle;connectable=0;fillColor=none;top=0;left=0;bottom=0;right=0;align=left;spacingLeft=6;overflow=hidden;whiteSpace=wrap;html=1;fontSize=17;strokeColor=#FFD700;fontStyle=1;verticalAlign=bottom;" vertex="1" parent="7GvM1YG2zj2Vh1NtfJTj-182">
          <mxGeometry x="30" width="200" height="39" as="geometry">
            <mxRectangle width="200" height="39" as="alternateBounds" />
          </mxGeometry>
        </mxCell>
        <mxCell id="7GvM1YG2zj2Vh1NtfJTj-185" value="" style="shape=tableRow;horizontal=0;startSize=0;swimlaneHead=0;swimlaneBody=0;fillColor=none;collapsible=0;dropTarget=0;points=[[0,0.5],[1,0.5]];portConstraint=eastwest;top=0;left=0;right=0;bottom=0;fontSize=17;strokeColor=#FFD700;fontStyle=1;verticalAlign=bottom;align=left;" vertex="1" parent="7GvM1YG2zj2Vh1NtfJTj-160">
          <mxGeometry y="355" width="230" height="39" as="geometry" />
        </mxCell>
        <mxCell id="7GvM1YG2zj2Vh1NtfJTj-186" value="" style="shape=partialRectangle;connectable=0;fillColor=none;top=0;left=0;bottom=0;right=0;editable=1;overflow=hidden;whiteSpace=wrap;html=1;fontSize=17;strokeColor=#FFD700;fontStyle=1;verticalAlign=bottom;align=left;" vertex="1" parent="7GvM1YG2zj2Vh1NtfJTj-185">
          <mxGeometry width="30" height="39" as="geometry">
            <mxRectangle width="30" height="39" as="alternateBounds" />
          </mxGeometry>
        </mxCell>
        <mxCell id="7GvM1YG2zj2Vh1NtfJTj-187" value="product_line" style="shape=partialRectangle;connectable=0;fillColor=none;top=0;left=0;bottom=0;right=0;align=left;spacingLeft=6;overflow=hidden;whiteSpace=wrap;html=1;fontSize=17;strokeColor=#FFD700;fontStyle=1;verticalAlign=bottom;" vertex="1" parent="7GvM1YG2zj2Vh1NtfJTj-185">
          <mxGeometry x="30" width="200" height="39" as="geometry">
            <mxRectangle width="200" height="39" as="alternateBounds" />
          </mxGeometry>
        </mxCell>
        <mxCell id="7GvM1YG2zj2Vh1NtfJTj-188" style="shape=tableRow;horizontal=0;startSize=0;swimlaneHead=0;swimlaneBody=0;fillColor=none;collapsible=0;dropTarget=0;points=[[0,0.5],[1,0.5]];portConstraint=eastwest;top=0;left=0;right=0;bottom=0;fontSize=17;strokeColor=#FFD700;fontStyle=1;verticalAlign=bottom;align=left;" vertex="1" parent="7GvM1YG2zj2Vh1NtfJTj-160">
          <mxGeometry y="394" width="230" height="39" as="geometry" />
        </mxCell>
        <mxCell id="7GvM1YG2zj2Vh1NtfJTj-189" style="shape=partialRectangle;connectable=0;fillColor=none;top=0;left=0;bottom=0;right=0;editable=1;overflow=hidden;whiteSpace=wrap;html=1;fontSize=17;strokeColor=#FFD700;fontStyle=1;verticalAlign=bottom;align=left;" vertex="1" parent="7GvM1YG2zj2Vh1NtfJTj-188">
          <mxGeometry width="30" height="39" as="geometry">
            <mxRectangle width="30" height="39" as="alternateBounds" />
          </mxGeometry>
        </mxCell>
        <mxCell id="7GvM1YG2zj2Vh1NtfJTj-190" value="start_date" style="shape=partialRectangle;connectable=0;fillColor=none;top=0;left=0;bottom=0;right=0;align=left;spacingLeft=6;overflow=hidden;whiteSpace=wrap;html=1;fontSize=17;strokeColor=#FFD700;fontStyle=1;verticalAlign=bottom;" vertex="1" parent="7GvM1YG2zj2Vh1NtfJTj-188">
          <mxGeometry x="30" width="200" height="39" as="geometry">
            <mxRectangle width="200" height="39" as="alternateBounds" />
          </mxGeometry>
        </mxCell>
        <mxCell id="7GvM1YG2zj2Vh1NtfJTj-191" value="" style="edgeStyle=entityRelationEdgeStyle;fontSize=12;html=1;endArrow=ERzeroToMany;startArrow=ERmandOne;rounded=0;exitX=1;exitY=0.5;exitDx=0;exitDy=0;entryX=-0.008;entryY=0.734;entryDx=0;entryDy=0;entryPerimeter=0;" edge="1" parent="1" source="7GvM1YG2zj2Vh1NtfJTj-17" target="7GvM1YG2zj2Vh1NtfJTj-108">
          <mxGeometry width="100" height="100" relative="1" as="geometry">
            <mxPoint x="340" y="340" as="sourcePoint" />
            <mxPoint x="440" y="240" as="targetPoint" />
          </mxGeometry>
        </mxCell>
        <mxCell id="7GvM1YG2zj2Vh1NtfJTj-192" value="" style="edgeStyle=entityRelationEdgeStyle;fontSize=12;html=1;endArrow=ERzeroToMany;startArrow=ERmandOne;rounded=0;exitX=0;exitY=0.5;exitDx=0;exitDy=0;entryX=0.989;entryY=0.789;entryDx=0;entryDy=0;entryPerimeter=0;" edge="1" parent="1" source="7GvM1YG2zj2Vh1NtfJTj-161" target="7GvM1YG2zj2Vh1NtfJTj-105">
          <mxGeometry width="100" height="100" relative="1" as="geometry">
            <mxPoint x="720" y="331.5" as="sourcePoint" />
            <mxPoint x="828" y="250" as="targetPoint" />
          </mxGeometry>
        </mxCell>
      </root>
    </mxGraphModel>
  </diagram>
</mxfile>
